# This file uses centimeters as units for non-parametric coordinates.

v 1.969614 0.010000 -0.347295
v 1.879385 0.010000 -0.684038
v 1.732050 0.010000 -0.999998
v 1.532089 0.010000 -1.285573
v 1.285575 0.010000 -1.532087
v 1.000000 0.010000 -1.732049
v 0.684041 0.010000 -1.879384
v 0.347297 0.010000 -1.969614
v 0.000001 0.010000 -1.999999
v -0.347295 0.010000 -1.969615
v -0.684039 0.010000 -1.879385
v -0.999999 0.010000 -1.732050
v -1.285574 0.010000 -1.532089
v -1.532087 0.010000 -1.285575
v -1.732049 0.010000 -1.000000
v -1.879384 0.010000 -0.684041
v -1.969614 0.010000 -0.347297
v -1.999999 0.010000 -0.000001
v -1.969615 0.010000 0.347296
v -1.879385 0.010000 0.684039
v -1.732051 0.010000 0.999999
v -1.532089 0.010000 1.285574
v -1.285575 0.010000 1.532088
v -1.000000 0.010000 1.732050
v -0.684040 0.010000 1.879385
v -0.347297 0.010000 1.969615
v -0.000000 0.010000 2.000000
v 0.347296 0.010000 1.969615
v 0.684040 0.010000 1.879385
v 1.000000 0.010000 1.732051
v 1.285575 0.010000 1.532089
v 1.532089 0.010000 1.285575
v 1.732051 0.010000 1.000000
v 1.879385 0.010000 0.684040
v 1.969615 0.010000 0.347296
v 2.000000 0.010000 0.000000
v 0.000000 0.010000 0.000000
vt 0.953146 0.420467
vt 0.932387 0.342993
vt 0.898490 0.270301
vt 0.852485 0.204599
vt 0.795770 0.147884
vt 0.730068 0.101879
vt 0.657376 0.067982
vt 0.579902 0.047223
vt 0.500000 0.040233
vt 0.420098 0.047223
vt 0.342624 0.067982
vt 0.269932 0.101879
vt 0.204230 0.147884
vt 0.147515 0.204599
vt 0.101510 0.270301
vt 0.067613 0.342993
vt 0.046854 0.420467
vt 0.039863 0.500369
vt 0.046854 0.580271
vt 0.067613 0.657745
vt 0.101510 0.730437
vt 0.147515 0.796139
vt 0.204230 0.852854
vt 0.269932 0.898859
vt 0.342624 0.932756
vt 0.420098 0.953515
vt 0.500000 0.960506
vt 0.579902 0.953515
vt 0.657376 0.932756
vt 0.730068 0.898859
vt 0.795770 0.852854
vt 0.852485 0.796139
vt 0.898490 0.730437
vt 0.932387 0.657745
vt 0.953146 0.580271
vt 0.960137 0.500369
vt 0.500000 0.481963
vn 0.000000 1.000000 -0.000000
vn 0.000000 1.000000 -0.000000
vn 0.000000 1.000000 -0.000000
vn 0.000000 1.000000 0.000000
vn 0.000000 1.000000 0.000000
vn 0.000000 1.000000 0.000000
vn 0.000000 1.000000 0.000000
vn 0.000000 1.000000 0.000000
vn 0.000000 1.000000 0.000000
vn 0.000000 1.000000 0.000000
vn 0.000000 1.000000 0.000000
vn 0.000000 1.000000 0.000000
vn 0.000000 1.000000 -0.000000
vn 0.000000 1.000000 -0.000000
vn 0.000000 1.000000 0.000000
vn 0.000000 1.000000 0.000000
vn 0.000000 1.000000 0.000000
vn 0.000000 1.000000 0.000000
vn 0.000000 1.000000 0.000000
vn 0.000000 1.000000 0.000000
vn 0.000000 1.000000 0.000000
vn 0.000000 1.000000 -0.000000
vn 0.000000 1.000000 0.000000
vn 0.000000 1.000000 0.000000
vn 0.000000 1.000000 0.000000
vn 0.000000 1.000000 0.000000
vn 0.000000 1.000000 0.000000
vn 0.000000 1.000000 -0.000000
vn 0.000000 1.000000 -0.000000
vn 0.000000 1.000000 0.000000
vn 0.000000 1.000000 -0.000000
vn 0.000000 1.000000 -0.000000
vn 0.000000 1.000000 0.000000
vn 0.000000 1.000000 -0.000000
vn 0.000000 1.000000 -0.000000
vn 0.000000 1.000000 0.000000
vn 0.000000 1.000000 0.000000
f 1/35/1 2/34/2 37/37/3
f 2/34/2 3/33/4 37/37/3
f 3/33/4 4/32/5 37/37/3
f 4/32/5 5/31/6 37/37/3
f 5/31/6 6/30/7 37/37/3
f 6/30/7 7/29/8 37/37/3
f 7/29/8 8/28/9 37/37/3
f 8/28/9 9/27/10 37/37/3
f 9/27/10 10/26/11 37/37/3
f 10/26/11 11/25/12 37/37/3
f 11/25/12 12/24/13 37/37/3
f 12/24/13 13/23/14 37/37/3
f 13/23/14 14/22/15 37/37/3
f 14/22/15 15/21/16 37/37/3
f 15/21/16 16/20/17 37/37/3
f 16/20/17 17/19/18 37/37/3
f 17/19/18 18/18/19 37/37/3
f 18/18/19 19/17/20 37/37/3
f 19/17/20 20/16/21 37/37/3
f 20/16/21 21/15/22 37/37/3
f 21/15/22 22/14/23 37/37/3
f 22/14/23 23/13/24 37/37/3
f 23/13/24 24/12/25 37/37/3
f 24/12/25 25/11/26 37/37/3
f 25/11/26 26/10/27 37/37/3
f 26/10/27 27/9/28 37/37/3
f 27/9/28 28/8/29 37/37/3
f 28/8/29 29/7/30 37/37/3
f 29/7/30 30/6/31 37/37/3
f 30/6/31 31/5/32 37/37/3
f 31/5/32 32/4/33 37/37/3
f 32/4/33 33/3/34 37/37/3
f 33/3/34 34/2/35 37/37/3
f 34/2/35 35/1/36 37/37/3
f 35/1/36 36/36/37 37/37/3
f 36/36/37 1/35/1 37/37/3
